<?xml version="1.0" encoding="utf-8"?>
<!-- Generator: Adobe Illustrator 18.1.1, SVG Export Plug-In . SVG Version: 6.00 Build 0)  -->
<svg version="1.1" id="Layer_1" xmlns="http://www.w3.org/2000/svg" xmlns:xlink="http://www.w3.org/1999/xlink" x="0px" y="0px"
	 width="28px" height="28px" viewBox="-668 1487 28 28" enable-background="new -668 1487 28 28" xml:space="preserve">
<polygon fill="none" stroke="#FFFFFF" stroke-width="1.5" stroke-miterlimit="10" points="-645.7,1513.5 -662.3,1513.5 
	-662.3,1488.5 -654,1488.5 -645.7,1496.8 "/>
<path fill="none" stroke="#FFFFFF" stroke-width="1.5" stroke-miterlimit="10" d="M-645.7,1496.8h-4.3c-2.2,0-4-1.8-4-4v-4.3"/>
<g>
	<path fill="#FFFFFF" d="M-655.4,1505.9l-2.7-4.2h2c0.1,0,0.2,0,0.3,0.1s0.1,0.1,0.2,0.2l1.7,2.9c0-0.1,0-0.1,0.1-0.1
		c0,0,0.1-0.1,0.1-0.1l1.5-2.6c0.1-0.2,0.2-0.3,0.4-0.3h1.9l-2.7,4.2l2.8,4.6h-2c-0.1,0-0.2,0-0.3-0.1c-0.1-0.1-0.1-0.1-0.2-0.2
		l-1.8-3.1c0,0.1-0.1,0.2-0.1,0.2l-1.6,2.8c0,0.1-0.1,0.2-0.2,0.2s-0.2,0.1-0.3,0.1h-1.9L-655.4,1505.9z"/>
</g>
</svg>
