<?xml version="1.0" encoding="utf-8"?>
<!-- Generator: Adobe Illustrator 15.1.0, SVG Export Plug-In  -->
<!DOCTYPE svg PUBLIC "-//W3C//DTD SVG 1.1//EN" "http://www.w3.org/Graphics/SVG/1.1/DTD/svg11.dtd" [
	<!ENTITY ns_flows "http://ns.adobe.com/Flows/1.0/">
]>
<svg version="1.1"
	 xmlns="http://www.w3.org/2000/svg" xmlns:xlink="http://www.w3.org/1999/xlink" xmlns:a="http://ns.adobe.com/AdobeSVGViewerExtensions/3.0/"
	 x="0px" y="0px" width="15px" height="15px" viewBox="0.45 0.526 15 15"
	 overflow="visible" enable-background="new 0.45 0.526 15 15" xml:space="preserve">
<defs>
</defs>
<circle fill="none" stroke="#FFFFFF" stroke-width="1.5" stroke-miterlimit="10" cx="7.951" cy="8.026" r="2.024"/>
<path fill="none" stroke="#FFFFFF" stroke-width="1.5" stroke-miterlimit="10" d="M13.45,8.981c0.108-0.624,0.105-1.267-0.004-1.903
	c0.299-0.556,0.845-0.958,1.495-1.049c-0.331-1.167-0.945-2.213-1.765-3.062c-0.405,0.518-1.027,0.791-1.658,0.772
	c-0.496-0.414-1.053-0.738-1.648-0.956C9.543,2.25,9.471,1.581,9.715,0.975C9.149,0.832,8.56,0.75,7.951,0.75
	c-0.612,0-1.2,0.082-1.768,0.225c0.245,0.609,0.171,1.28-0.158,1.816C5.732,2.898,5.443,3.027,5.164,3.188
	C4.88,3.351,4.622,3.539,4.379,3.741C3.75,3.759,3.129,3.486,2.724,2.97c-0.819,0.848-1.432,1.893-1.766,3.06
	c0.648,0.091,1.194,0.49,1.494,1.041C2.343,7.694,2.345,8.338,2.455,8.975C2.156,9.529,1.608,9.93,0.959,10.021
	c0.333,1.166,0.944,2.213,1.766,3.059c0.405-0.515,1.024-0.787,1.653-0.77c0.498,0.415,1.056,0.74,1.653,0.959
	c0.325,0.533,0.396,1.203,0.152,1.808c0.568,0.142,1.156,0.227,1.768,0.227c0.609,0,1.198-0.085,1.764-0.225
	c-0.244-0.609-0.17-1.282,0.159-1.817c0.296-0.109,0.588-0.239,0.87-0.403c0.28-0.162,0.536-0.348,0.776-0.548
	c0.63-0.018,1.25,0.256,1.654,0.773c0.82-0.847,1.436-1.894,1.768-3.062C14.293,9.931,13.749,9.532,13.45,8.981z"/>
</svg>
