<?xml version="1.0" encoding="utf-8"?>
<!-- Generator: Adobe Illustrator 18.1.0, SVG Export Plug-In . SVG Version: 6.00 Build 0)  -->
<svg version="1.1" id="Layer_1" xmlns="http://www.w3.org/2000/svg" xmlns:xlink="http://www.w3.org/1999/xlink" x="0px" y="0px"
	 width="28px" height="28px" viewBox="-485 487 28 28" enable-background="new -485 487 28 28" xml:space="preserve">
<polygon fill="none" stroke="#FFFFFF" stroke-width="1.5" stroke-miterlimit="10" points="-462.666,513.5 -479.334,513.5 
	-479.334,488.5 -471,488.5 -462.666,496.833 "/>
<path fill="none" stroke="#FFFFFF" stroke-width="1.5" stroke-miterlimit="10" d="M-462.666,496.833H-467c-2.2,0-4-1.8-4-4V488.5"/>
<g>
	<path fill="#FFFFFF" d="M-476.551,506.109c0-0.063,0.05-0.119,0.119-0.119h1.509c0.77,0,1.402,0.626,1.402,1.383
		c0,0.776-0.632,1.408-1.396,1.408h-0.657v1.471c0,0.063-0.056,0.119-0.119,0.119h-0.738c-0.069,0-0.119-0.056-0.119-0.119V506.109z
		 M-474.98,507.868c0.269,0,0.494-0.213,0.494-0.494c0-0.263-0.225-0.463-0.494-0.463h-0.595v0.958H-474.98z"/>
	<path fill="#FFFFFF" d="M-472.881,506.109c0-0.063,0.05-0.119,0.113-0.119h1.527c1.208,0,2.197,0.983,2.197,2.185
		c0,1.214-0.989,2.197-2.197,2.197h-1.527c-0.062,0-0.113-0.056-0.113-0.119V506.109z M-471.304,509.445
		c0.707,0,1.221-0.557,1.221-1.271c0-0.707-0.513-1.264-1.221-1.264h-0.601v2.535H-471.304z"/>
	<path fill="#FFFFFF" d="M-468.278,506.109c0-0.063,0.05-0.119,0.119-0.119h2.591c0.069,0,0.119,0.056,0.119,0.119v0.682
		c0,0.063-0.05,0.119-0.119,0.119h-1.734v0.901h1.427c0.063,0,0.119,0.056,0.119,0.119v0.682c0,0.063-0.056,0.119-0.119,0.119
		h-1.427v1.521c0,0.063-0.056,0.119-0.119,0.119h-0.738c-0.069,0-0.119-0.056-0.119-0.119V506.109z"/>
</g>
</svg>
