<?xml version="1.0" encoding="utf-8"?>
<!-- Generator: Adobe Illustrator 15.1.0, SVG Export Plug-In  -->
<!DOCTYPE svg PUBLIC "-//W3C//DTD SVG 1.1//EN" "http://www.w3.org/Graphics/SVG/1.1/DTD/svg11.dtd" [
	<!ENTITY ns_flows "http://ns.adobe.com/Flows/1.0/">
]>
<svg version="1.1"
	 xmlns="http://www.w3.org/2000/svg" xmlns:xlink="http://www.w3.org/1999/xlink" xmlns:a="http://ns.adobe.com/AdobeSVGViewerExtensions/3.0/"
	 x="0px" y="0px" width="25px" height="25px" viewBox="-1.75 -1.75 25 25"
	 overflow="visible" enable-background="new -1.75 -1.75 25 25" xml:space="preserve">
<defs>
</defs>
<path fill="none" stroke="#3A3A49" stroke-width="1.5" stroke-linecap="square" stroke-miterlimit="10" d="M19.984,12.597
	c1.021-1.02,1.019-2.674,0-3.695c-1.02-1.018-2.674-1.02-3.693,0c-1.021,1.021-1.021,2.676,0,3.695
	C17.31,13.616,18.964,13.616,19.984,12.597z"/>
<circle fill="none" stroke="#3A3A49" stroke-width="1.5" stroke-linecap="square" stroke-miterlimit="10" cx="10.75" cy="18.138" r="2.612"/>
<path fill="none" stroke="#3A3A49" stroke-width="1.5" stroke-linecap="square" stroke-miterlimit="10" d="M12.597,5.21
	c1.021-1.021,1.02-2.674,0-3.695c-1.02-1.02-2.674-1.02-3.693,0L1.516,8.901c-1.021,1.021-1.02,2.676,0,3.695
	c1.02,1.02,2.674,1.02,3.694,0L12.597,5.21z"/>
<line fill="none" stroke="#3A3A49" stroke-width="1.5" stroke-linecap="square" stroke-miterlimit="10" x1="8.903" y1="8.903" x2="5.209" y2="5.208"/>
<line fill="none" stroke="#3A3A49" stroke-width="1.5" stroke-linecap="square" stroke-miterlimit="10" x1="19.984" y1="12.597" x2="16.29" y2="8.901"/>
</svg>
