<?xml version="1.0" encoding="utf-8"?>
<!-- Generator: Adobe Illustrator 15.1.0, SVG Export Plug-In  -->
<!DOCTYPE svg PUBLIC "-//W3C//DTD SVG 1.1//EN" "http://www.w3.org/Graphics/SVG/1.1/DTD/svg11.dtd" [
	<!ENTITY ns_flows "http://ns.adobe.com/Flows/1.0/">
]>
<svg version="1.1"
	 xmlns="http://www.w3.org/2000/svg" xmlns:xlink="http://www.w3.org/1999/xlink" xmlns:a="http://ns.adobe.com/AdobeSVGViewerExtensions/3.0/"
	 x="0px" y="0px" width="20px" height="20px" viewBox="-2.504 -0.25 20 20"
	 overflow="visible" enable-background="new -2.504 -0.25 20 20" xml:space="preserve">
<defs>
</defs>
<g>
	<path fill="none" stroke="#7C7C7C" stroke-width="1.5" stroke-miterlimit="10" d="M11.993,5.25c0-2.485-2.012-4.5-4.497-4.5
		c-2.481,0-4.497,2.015-4.497,4.5v2.199c0,2.481,2.016,4.496,4.497,4.496c2.485,0,4.497-2.015,4.497-4.496V5.25z"/>
</g>
<g>
	<path fill="none" stroke="#7C7C7C" stroke-width="1.5" stroke-miterlimit="10" d="M10.128,11.09
		c2.419,1.023,4.114,3.422,4.114,6.217l0,0c-2.096,0.855-4.344,1.441-6.746,1.443c-2.408-0.002-4.648-0.588-6.746-1.443l0,0
		c0-2.799,1.7-5.197,4.123-6.221"/>
</g>
<line fill="none" stroke="#7C7C7C" stroke-width="1.5" stroke-miterlimit="10" x1="7.496" y1="11.945" x2="7.496" y2="15.555"/>
</svg>
