<?xml version="1.0" encoding="utf-8"?>
<!-- Generator: Adobe Illustrator 15.1.0, SVG Export Plug-In  -->
<!DOCTYPE svg PUBLIC "-//W3C//DTD SVG 1.1//EN" "http://www.w3.org/Graphics/SVG/1.1/DTD/svg11.dtd" [
	<!ENTITY ns_flows "http://ns.adobe.com/Flows/1.0/">
]>
<svg version="1.1"
	 xmlns="http://www.w3.org/2000/svg" xmlns:xlink="http://www.w3.org/1999/xlink" xmlns:a="http://ns.adobe.com/AdobeSVGViewerExtensions/3.0/"
	 x="0px" y="0px" width="80px" height="80px" viewBox="0 0 80 80" overflow="visible" enable-background="new 0 0 80 80"
	 xml:space="preserve">
<defs>
</defs>
<path fill="#5B5A68" d="M40.003,1.5C61.231,1.5,78.5,18.771,78.5,40c0,21.229-17.27,38.5-38.497,38.5C18.773,78.5,1.5,61.229,1.5,40
	C1.5,18.771,18.773,1.5,40.003,1.5 M40.003,0C17.912,0,0,17.909,0,40s17.912,40,40.003,40C62.094,80,80,62.091,80,40
	S62.094,0,40.003,0"/>
<path fill="none" stroke="#5B5A68" stroke-width="1.5" stroke-miterlimit="10" d="M30.706,24.261
	c1.855-0.81,3.412-1.349,4.668-1.619c1.257-0.27,2.552-0.405,3.88-0.405c3.116,0,5.57,0.831,7.358,2.496
	c1.788,1.666,2.683,3.952,2.683,6.857c0,1.151-0.156,2.159-0.464,3.02c-0.309,0.864-0.742,1.661-1.3,2.395
	c-0.561,0.738-1.235,1.446-2.023,2.134c-0.793,0.683-1.666,1.421-2.627,2.218c-1.084,0.911-1.915,1.746-2.484,2.496
	c-0.574,0.755-0.987,1.544-1.244,2.375c-0.258,0.826-0.384,2.062-0.384,3.702v0.354"/>
<path fill="#5B5A68" d="M38.54,57.763c-0.206,0-0.423-0.086-0.574-0.238c-0.151-0.15-0.238-0.367-0.238-0.584
	c0-0.205,0.087-0.412,0.238-0.562c0.303-0.303,0.855-0.303,1.147-0.01c0.152,0.16,0.239,0.367,0.239,0.572
	c0,0.217-0.087,0.423-0.239,0.584C38.961,57.677,38.756,57.763,38.54,57.763"/>
<rect x="0" fill="none" width="80" height="80"/>
</svg>
