<?xml version="1.0" encoding="utf-8"?>
<!-- Generator: Adobe Illustrator 15.1.0, SVG Export Plug-In  -->
<!DOCTYPE svg PUBLIC "-//W3C//DTD SVG 1.1//EN" "http://www.w3.org/Graphics/SVG/1.1/DTD/svg11.dtd" [
	<!ENTITY ns_flows "http://ns.adobe.com/Flows/1.0/">
]>
<svg version="1.1"
	 xmlns="http://www.w3.org/2000/svg" xmlns:xlink="http://www.w3.org/1999/xlink" xmlns:a="http://ns.adobe.com/AdobeSVGViewerExtensions/3.0/"
	 x="0px" y="0px" width="200px" height="40px" viewBox="-0.486 -3.194 200 40"
	 overflow="visible" enable-background="new -0.486 -3.194 200 40" xml:space="preserve">
<defs>
</defs>
<path fill="#4B4B5B" d="M0,28.46h3.417V5.226H0V0h12.669v5.332H9.253v23.228h3.416v5.331H0V28.46z"/>
<path fill="#4B4B5B" d="M18.205,5.226h-3.017V0h15.49c6.229,0,10.656,4.427,10.656,10.965s-4.426,11.161-10.761,11.161h-6.131
	v11.667h-6.236V5.226z M29.471,16.794c3.515,0,5.528-2.315,5.528-5.83c0-3.522-2.013-5.739-5.43-5.739h-5.128v11.568H29.471z"/>
<path fill="#4B4B5B" d="M44.757,6.334c0-0.701-0.407-1.003-1.01-1.003h-2.013V0h6.138c2.315,0,3.22,1.003,3.22,3.22v18.303
	c0,4.427,2.813,7.036,7.037,7.036c4.223,0,7.043-2.609,7.043-7.036V3.22c0-2.217,0.905-3.22,3.22-3.22h6.131v5.332h-2.014
	c-0.701,0-1.003,0.4-1.003,1.003v15.392c0,7.437-5.332,12.571-13.273,12.571c-8.046,0-13.378-5.135-13.378-12.571V6.334H44.757z"/>
<path fill="#FFFFFF" d="M86.091,15.89l-3.521,16.892h4.426l-0.203,0.912H73.218l0.197-0.912h4.426l6.742-31.673h-4.328l0.203-0.905
	h14.381c2.813,0,4.925,0.399,6.433,1.101c2.013,1.108,3.017,2.918,3.017,5.535c0,3.417-1.811,5.935-5.325,7.443
	c-1.508,0.604-3.725,1.102-6.742,1.403c2.918,1.01,4.932,2.217,6.138,3.725c0.604,0.808,1.003,1.712,1.305,2.813
	c0.301,1.108,0.505,2.308,0.505,3.515v3.115c0,1.627,0.196,2.722,0.604,3.423c0.399,0.617,1.206,1.011,2.308,1.011
	c0.505,0,1.011-0.099,1.817-0.31l-0.204,0.912c-1.508,0.407-2.616,0.716-3.521,0.716c-2.413,0-4.125-0.912-5.128-2.722
	c-0.702-1.319-1.108-3.325-1.305-6.229l-0.309-4.336c-0.295-3.521-2.308-5.226-6.033-5.226h-2.308V15.89z M86.393,14.984h3.318
	c2.007,0,3.62-0.204,4.722-0.505c1.108-0.302,2.013-0.905,2.616-1.705c0.604-0.807,1.207-1.81,1.614-3.122
	c0.4-1.305,0.603-2.609,0.603-3.823c0-2.006-0.603-3.417-1.915-4.118c-0.701-0.407-2.006-0.603-4.02-0.603h-4.125L86.393,14.984z"/>
<path fill="#FFFFFF" d="M107.508,24.841c-0.196,1.206-0.407,2.314-0.407,3.423c0,3.424,1.417,5.023,4.125,5.023
	c2.217,0,4.631-1.516,7.353-4.631l0.589,0.506c-1.501,1.81-2.918,3.114-4.209,3.815c-1.318,0.814-2.722,1.207-4.237,1.207
	c-2.301,0-4.216-0.897-5.725-2.609c-1.312-1.6-1.915-3.508-1.915-5.837c0-2.308,0.709-4.518,2.111-6.531
	c1.207-1.705,2.723-3.115,4.729-4.125c1.811-0.905,3.719-1.403,5.626-1.403c1.614,0,3.031,0.4,4.125,1.305
	c1.011,0.807,1.516,1.81,1.516,3.122c0,2.112-1.207,3.719-3.521,4.925C115.351,24.139,111.928,24.743,107.508,24.841z
	 M107.718,24.139c1.797-0.105,3.214-0.302,4.322-0.708c1.094-0.302,2.217-0.8,3.213-1.606c0.912-0.702,1.613-1.41,2.217-2.315
	s0.8-1.712,0.8-2.413c0-0.807-0.31-1.41-0.8-1.81c-0.604-0.505-1.305-0.702-2.217-0.702c-1.908,0-3.521,1.003-4.925,3.017
	C109.43,18.808,108.518,21.017,107.718,24.139z"/>
<path fill="#FFFFFF" d="M120.487,20.821l-0.702-0.406c1.011-2.014,2.007-3.515,2.807-4.525c1.318-1.41,2.82-2.21,4.434-2.21
	c1.796,0,2.708,0.905,2.708,2.813c0,0.407,0,0.807-0.099,1.207l-2.512,10.565c-0.21,0.8-0.294,1.501-0.294,2.104
	c0,1.613,0.785,2.525,2.413,2.525c1.094,0,2.202-0.505,3.311-1.515c1.108-1.011,2.217-2.315,3.228-4.125
	c0.701-1.305,1.291-2.723,1.796-4.224c0.505-1.508,0.701-2.812,0.701-3.823c0-0.399-0.084-0.701-0.295-0.807
	c-0.21-0.099-0.603-0.295-1.417-0.399c-0.491-0.099-0.996-0.302-1.29-0.702c-0.309-0.4-0.506-0.807-0.506-1.312
	c0-0.604,0.197-1.102,0.59-1.606c0.421-0.4,0.912-0.604,1.516-0.604c1.711,0,2.525,1.305,2.525,3.823
	c0,1.509-0.309,3.318-0.912,5.227c-0.604,1.915-1.417,3.725-2.414,5.324c-2.413,4.041-5.331,6.146-8.544,6.146
	c-1.417,0-2.624-0.407-3.424-1.207c-0.813-0.813-1.206-1.908-1.206-3.325c0-0.911,0.098-1.908,0.393-3.213l2.329-9.653
	c0.084-0.309,0.084-0.505,0.084-0.708c0-0.603-0.294-0.905-0.8-0.905C123.994,15.384,122.395,17.194,120.487,20.821z"/>
<path fill="#FFFFFF" d="M148.351,14.283l-3.732,15.581c-0.196,0.912-0.309,1.516-0.309,1.824c0,0.701,0.309,0.996,0.912,0.996
	c1.501,0,3.213-1.908,5.233-5.626l0.701,0.393c-0.309,0.505-0.393,0.813-0.505,0.912c-1.095,2.006-2.104,3.409-3.017,4.223
	c-1.206,1.108-2.512,1.712-3.816,1.712c-0.912,0-1.613-0.309-2.217-0.897c-0.604-0.618-0.8-1.418-0.8-2.329
	c0-0.59,0.196-1.6,0.506-2.807l3.114-12.978h-4.321l0.196-0.905h8.054V14.283z"/>
<path opacity="0.8" fill="#4B4B5B" enable-background="new    " d="M147.635,1.606c0.716,0,1.305,0.204,1.712,0.708
	c0.505,0.498,0.701,1.102,0.701,1.705c0,0.708-0.196,1.207-0.701,1.712c-0.505,0.505-0.996,0.702-1.712,0.702
	c-0.701,0-1.206-0.197-1.697-0.702c-0.505-0.505-0.716-1.003-0.716-1.712c0-0.701,0.211-1.207,0.716-1.705
	C146.331,1.908,146.934,1.606,147.635,1.606z"/>
<path fill="#FFFFFF" d="M154.777,24.841c-0.196,1.206-0.393,2.314-0.393,3.423c0,3.424,1.402,5.023,4.125,5.023
	c2.202,0,4.615-1.516,7.323-4.631l0.618,0.506c-1.516,1.81-2.919,3.114-4.237,3.815c-1.291,0.814-2.708,1.207-4.21,1.207
	c-2.328,0-4.236-0.897-5.738-2.609c-1.305-1.6-1.922-3.508-1.922-5.837c0-2.308,0.716-4.518,2.118-6.531
	c1.207-1.705,2.723-3.115,4.729-4.125c1.81-0.905,3.732-1.403,5.641-1.403c1.6,0,3.002,0.4,4.125,1.305
	c0.996,0.807,1.501,1.81,1.501,3.122c0,2.112-1.207,3.719-3.521,4.925C162.62,24.139,159.21,24.743,154.777,24.841z M154.973,24.139
	c1.824-0.105,3.228-0.302,4.321-0.708c1.123-0.302,2.217-0.8,3.228-1.606c0.897-0.702,1.599-1.41,2.217-2.315
	c0.589-0.905,0.8-1.712,0.8-2.413c0-0.807-0.295-1.41-0.8-1.81c-0.618-0.505-1.319-0.702-2.217-0.702
	c-1.908,0-3.522,1.003-4.925,3.017C156.586,18.808,155.787,21.017,154.973,24.139z"/>
<path fill="#FFFFFF" d="M190.078,14.283c-0.196,0.8-0.604,2.512-1.108,5.227c-0.702,3.122-1.108,5.233-1.305,6.342
	c-0.196,1.095-0.309,2.217-0.309,3.424c0,1.094,0.112,2.006,0.406,2.497c0.295,0.716,0.912,1.01,1.811,1.01
	c2.104,0,4.124-2.104,6.145-6.229c1.403-3.017,2.104-5.633,2.104-7.744c0-0.407-0.098-0.702-0.196-0.905
	c-0.112-0.204-0.406-0.302-0.813-0.302c-1.403-0.203-2.006-0.807-2.006-1.915c0-0.604,0.196-1.003,0.603-1.403
	c0.394-0.407,0.898-0.603,1.516-0.603c1.403,0,2.104,1.101,2.104,3.417c0,3.017-0.701,6.138-2.217,9.456
	c-1.095,2.512-2.413,4.42-3.816,5.725c-1.402,1.319-2.918,1.908-4.434,1.908c-1.291,0-2.413-0.589-3.213-1.697
	s-1.207-2.624-1.207-4.532c0-1.403,0.407-3.816,1.109-7.239c-1.712,4.125-3.228,7.043-4.519,9.049
	c-2.021,2.919-4.237,4.42-6.748,4.42c-1.108,0-2.007-0.295-2.708-0.897c-0.702-0.604-1.011-1.403-1.011-2.512
	c0-0.8,0.196-1.922,0.506-3.213l2.609-10.972c0-0.196,0.112-0.302,0.112-0.498c0-0.708-0.309-1.108-1.011-1.108
	c-1.402,0-2.918,1.915-4.531,5.633l-0.8-0.302c0.897-2.111,1.712-3.521,2.301-4.328c1.319-1.606,2.722-2.414,4.336-2.414
	c0.911,0,1.697,0.302,2.314,0.905c0.59,0.603,0.898,1.312,0.898,2.217c0,0.4-0.099,0.807-0.197,1.305l-2.918,12.367
	c-0.098,0.407-0.098,0.702-0.098,1.011c0,0.393,0.196,0.701,0.49,1.01c0.309,0.295,0.716,0.393,1.207,0.393
	c2.021,0,4.125-2.006,6.342-6.131c2.021-3.823,3.424-7.24,4.125-10.256l0.505-2.112H190.078z"/>
</svg>
