<?xml version="1.0" encoding="utf-8"?>
<!-- Generator: Adobe Illustrator 15.1.0, SVG Export Plug-In . SVG Version: 6.00 Build 0)  -->
<!DOCTYPE svg PUBLIC "-//W3C//DTD SVG 1.1//EN" "http://www.w3.org/Graphics/SVG/1.1/DTD/svg11.dtd">
<svg version="1.1" id="Layer_1" xmlns="http://www.w3.org/2000/svg" xmlns:xlink="http://www.w3.org/1999/xlink" x="0px" y="0px"
	 width="113px" height="35px" viewBox="0 0 113 35" enable-background="new 0 0 113 35" xml:space="preserve">
<g>
	<g>
		<path fill="#AA8ABC" d="M11.506,16.494V0.307H4.081c-1.846,0-3.342,1.498-3.342,3.344L0.715,16.494H11.506z"/>
		<path fill="#00B7EA" d="M25.535,18.652v8.633H11.506v-8.633H0.715l0.023,12.818c0,1.848,1.496,3.344,3.343,3.344h27.822
			c1.847,0,3.344-1.496,3.344-3.344V18.652H25.535z"/>
		<path fill="#93C242" d="M31.903,0.307H13.664v24.82h9.713v-8.633h11.87V3.65C35.247,1.805,33.75,0.307,31.903,0.307 M27.695,9.48
			h-2.158v2.159h-2.159V9.48h-2.158V7.323h2.158V5.164h2.159v2.159h2.158V9.48z"/>
	</g>
	<path fill="#FFFFFF" d="M43.499,0.764c0-0.13,0.119-0.248,0.25-0.248h1.223c0.131,0,0.25,0.118,0.25,0.248v8.654
		c0,0.131-0.119,0.248-0.25,0.248h-1.223c-0.131,0-0.25-0.117-0.25-0.248V0.764z"/>
	<path fill="#FFFFFF" d="M47.363,0.764c0-0.13,0.104-0.248,0.249-0.248h3.76c1.578,0,2.865,1.255,2.865,2.81
		c0,1.204-0.801,2.185-1.946,2.642l1.803,3.32c0.091,0.17,0,0.379-0.224,0.379h-1.381c-0.117,0-0.184-0.065-0.209-0.117
		l-1.749-3.464h-1.459v3.333c0,0.131-0.119,0.248-0.25,0.248h-1.209c-0.145,0-0.249-0.117-0.249-0.248V0.764z M51.228,4.686
		c0.697,0,1.302-0.602,1.302-1.333c0-0.694-0.604-1.269-1.302-1.269h-2.143v2.602H51.228z"/>
	<path fill="#FFFFFF" d="M55.867,0.764c0-0.13,0.118-0.248,0.25-0.248h1.223c0.132,0,0.25,0.118,0.25,0.248v8.654
		c0,0.131-0.118,0.248-0.25,0.248h-1.223c-0.132,0-0.25-0.117-0.25-0.248V0.764z"/>
	<path fill="#FFFFFF" d="M59.191,8.385l0.475-0.811c0.105-0.184,0.329-0.184,0.447-0.091c0.065,0.038,1.131,0.81,1.984,0.81
		c0.684,0,1.197-0.443,1.197-1.006c0-0.666-0.565-1.125-1.67-1.568c-1.235-0.498-2.472-1.281-2.472-2.824
		c0-1.164,0.868-2.51,2.958-2.51c1.342,0,2.366,0.68,2.629,0.877c0.132,0.076,0.172,0.3,0.079,0.431L64.32,2.438
		c-0.105,0.156-0.303,0.261-0.461,0.156c-0.104-0.064-1.104-0.719-1.827-0.719c-0.75,0-1.157,0.496-1.157,0.915
		c0,0.614,0.486,1.033,1.551,1.464c1.276,0.51,2.748,1.268,2.748,2.954c0,1.347-1.17,2.588-3.023,2.588
		c-1.656,0-2.629-0.771-2.893-1.019C59.141,8.66,59.074,8.595,59.191,8.385"/>
	<path fill="#FFFFFF" d="M66.607,0.764c0-0.13,0.116-0.248,0.248-0.248h1.223c0.145,0,0.25,0.118,0.25,0.248v3.465h4.286V0.764
		c0-0.13,0.104-0.248,0.25-0.248h1.21c0.13,0,0.25,0.118,0.25,0.248v8.654c0,0.131-0.12,0.248-0.25,0.248h-1.21
		c-0.146,0-0.25-0.117-0.25-0.248V5.811h-4.286v3.607c0,0.131-0.105,0.248-0.25,0.248h-1.223c-0.132,0-0.248-0.117-0.248-0.248
		V0.764z"/>
	<path fill="#FFFFFF" d="M43.499,13.391c0-0.131,0.105-0.248,0.25-0.248h3.09c1.617,0,2.944,1.307,2.944,2.889
		c0,1.621-1.327,2.94-2.932,2.94h-1.643v3.072c0,0.13-0.117,0.249-0.25,0.249h-1.209c-0.145,0-0.25-0.119-0.25-0.249V13.391z
		 M46.733,17.377c0.735,0,1.354-0.588,1.354-1.359c0-0.719-0.619-1.268-1.354-1.268h-1.526v2.627H46.733z"/>
	<path fill="#FFFFFF" d="M51.03,13.391c0-0.131,0.118-0.248,0.25-0.248h1.223c0.144,0,0.25,0.117,0.25,0.248v3.465h4.286v-3.465
		c0-0.131,0.104-0.248,0.249-0.248h1.21c0.131,0,0.25,0.117,0.25,0.248v8.653c0,0.13-0.119,0.249-0.25,0.249h-1.21
		c-0.146,0-0.249-0.119-0.249-0.249v-3.607h-4.286v3.607c0,0.13-0.107,0.249-0.25,0.249H51.28c-0.132,0-0.25-0.119-0.25-0.249
		V13.391z"/>
	<path fill="#FFFFFF" d="M59.692,21.952l4.088-8.798c0.04-0.078,0.106-0.143,0.224-0.143h0.133c0.131,0,0.184,0.064,0.223,0.143
		l4.049,8.798c0.078,0.17-0.027,0.341-0.224,0.341h-1.144c-0.197,0-0.289-0.079-0.38-0.263l-0.645-1.411h-3.933L61.44,22.03
		c-0.052,0.131-0.171,0.263-0.38,0.263h-1.144C59.719,22.293,59.613,22.122,59.692,21.952 M65.371,19.168l-1.314-2.876h-0.039
		l-1.288,2.876H65.371z"/>
	<path fill="#FFFFFF" d="M69.354,13.391c0-0.131,0.105-0.248,0.25-0.248h3.761c1.577,0,2.864,1.254,2.864,2.811
		c0,1.202-0.803,2.182-1.946,2.641l1.803,3.318c0.091,0.171,0,0.381-0.224,0.381H74.48c-0.118,0-0.184-0.066-0.21-0.119
		l-1.748-3.463h-1.46v3.333c0,0.13-0.119,0.249-0.25,0.249h-1.209c-0.145,0-0.25-0.119-0.25-0.249V13.391z M73.219,17.312
		c0.696,0,1.301-0.601,1.301-1.333c0-0.693-0.604-1.269-1.301-1.269h-2.144v2.602H73.219z"/>
	<path fill="#FFFFFF" d="M78.818,13.207c0.013-0.105,0.092-0.195,0.236-0.195h0.209c0.107,0,0.186,0.053,0.225,0.131l2.893,6.17
		h0.039l2.893-6.17c0.039-0.078,0.105-0.131,0.225-0.131h0.209c0.145,0,0.225,0.09,0.236,0.195l1.553,8.784
		c0.038,0.183-0.067,0.302-0.238,0.302h-1.195c-0.119,0-0.225-0.105-0.25-0.197l-0.775-4.954h-0.039l-2.301,5.138
		c-0.027,0.078-0.105,0.145-0.224,0.145h-0.237c-0.119,0-0.184-0.066-0.223-0.145l-2.328-5.138h-0.04l-0.762,4.954
		c-0.013,0.092-0.118,0.197-0.237,0.197h-1.182c-0.172,0-0.277-0.119-0.251-0.302L78.818,13.207z"/>
	<path fill="#FFFFFF" d="M87.887,21.952l4.088-8.798c0.039-0.078,0.105-0.143,0.225-0.143h0.133c0.129,0,0.182,0.064,0.223,0.143
		l4.049,8.798c0.078,0.17-0.025,0.341-0.224,0.341h-1.144c-0.197,0-0.289-0.079-0.381-0.263l-0.644-1.411H90.28l-0.645,1.411
		c-0.054,0.131-0.171,0.263-0.382,0.263h-1.143C87.912,22.293,87.808,22.122,87.887,21.952 M93.566,19.168l-1.315-2.876h-0.038
		l-1.289,2.876H93.566z"/>
	<path fill="#FFFFFF" d="M101.559,13.012c1.327,0,2.287,0.418,3.18,1.215c0.119,0.104,0.119,0.262,0.016,0.366l-0.803,0.823
		c-0.092,0.104-0.223,0.104-0.328,0c-0.553-0.482-1.29-0.77-2.025-0.77c-1.682,0-2.932,1.397-2.932,3.045
		c0,1.634,1.262,3.02,2.943,3.02c0.791,0,1.461-0.301,2.014-0.745c0.105-0.092,0.249-0.079,0.328,0l0.814,0.836
		c0.105,0.091,0.078,0.261-0.012,0.353c-0.895,0.863-2.025,1.268-3.195,1.268c-2.63,0-4.748-2.078-4.748-4.691
		C96.811,15.115,98.929,13.012,101.559,13.012"/>
	<path fill="#FFFFFF" d="M107.986,17.887l-2.998-4.365c-0.104-0.17,0-0.379,0.212-0.379h1.339c0.105,0,0.172,0.064,0.211,0.117
		l2.104,3.006l2.103-3.006c0.04-0.053,0.105-0.117,0.211-0.117h1.354c0.211,0,0.315,0.209,0.211,0.379l-3.037,4.354v4.169
		c0,0.13-0.119,0.249-0.25,0.249h-1.209c-0.145,0-0.25-0.119-0.25-0.249V17.887z"/>
	<path fill="#FFFFFF" d="M43.499,25.885c0-0.131,0.119-0.248,0.25-0.248h1.249c0.145,0,0.25,0.117,0.25,0.248v5.346
		c0,1.113,0.762,1.988,1.906,1.988c1.145,0,1.919-0.875,1.919-1.975v-5.359c0-0.131,0.107-0.248,0.25-0.248h1.249
		c0.132,0,0.25,0.117,0.25,0.248v5.438c0,1.986-1.591,3.595-3.668,3.595c-2.063,0-3.655-1.608-3.655-3.595V25.885z"/>
	<path fill="#FFFFFF" d="M52.832,25.742c0-0.132,0.119-0.236,0.25-0.236h0.329l5.469,5.777h0.014v-5.398
		c0-0.131,0.104-0.248,0.249-0.248h1.21c0.132,0,0.249,0.117,0.249,0.248v8.798c0,0.13-0.117,0.235-0.249,0.235h-0.314l-5.497-6
		h-0.014v5.621c0,0.131-0.104,0.248-0.249,0.248h-1.196c-0.131,0-0.25-0.117-0.25-0.248V25.742z"/>
	<path fill="#FFFFFF" d="M62.744,25.885c0-0.131,0.117-0.248,0.249-0.248h1.223c0.132,0,0.249,0.117,0.249,0.248v8.654
		c0,0.131-0.117,0.248-0.249,0.248h-1.223c-0.132,0-0.249-0.117-0.249-0.248V25.885z"/>
	<path fill="#FFFFFF" d="M70.669,25.506c2.63,0,4.733,2.104,4.733,4.719s-2.104,4.693-4.733,4.693s-4.72-2.079-4.72-4.693
		S68.039,25.506,70.669,25.506 M70.669,33.219c1.657,0,3.023-1.347,3.023-2.994c0-1.646-1.366-3.02-3.023-3.02
		c-1.655,0-3.011,1.373-3.011,3.02C67.658,31.872,69.014,33.219,70.669,33.219"/>
	<path fill="#FFFFFF" d="M76.873,25.742c0-0.132,0.117-0.236,0.25-0.236h0.329l5.469,5.777h0.013v-5.398
		c0-0.131,0.105-0.248,0.25-0.248h1.209c0.133,0,0.249,0.117,0.249,0.248v8.798c0,0.13-0.116,0.235-0.249,0.235h-0.315l-5.495-6
		h-0.014v5.621c0,0.131-0.105,0.248-0.25,0.248h-1.195c-0.133,0-0.25-0.117-0.25-0.248V25.742z"/>
</g>
</svg>
