<?xml version="1.0" encoding="utf-8"?>
<!-- Generator: Adobe Illustrator 18.1.0, SVG Export Plug-In . SVG Version: 6.00 Build 0)  -->
<svg version="1.1" id="Layer_1" xmlns="http://www.w3.org/2000/svg" xmlns:xlink="http://www.w3.org/1999/xlink" x="0px" y="0px"
	 viewBox="0 0 187 80" enable-background="new 0 0 187 80" xml:space="preserve">
<g>
	<path fill="#444450" d="M86.9,0.5c0-0.2,0.2-0.4,0.4-0.4H89c0.2,0,0.4,0.2,0.4,0.4V13c0,0.2-0.2,0.4-0.4,0.4h-1.8
		c-0.2,0-0.4-0.2-0.4-0.4V0.5z"/>
	<path fill="#444450" d="M92.5,0.5c0-0.2,0.1-0.4,0.4-0.4h5.4c2.3,0,4.1,1.8,4.1,4.1c0,1.7-1.1,3.1-2.8,3.8l2.6,4.8
		c0.1,0.2,0,0.5-0.3,0.5h-2c-0.2,0-0.3-0.1-0.3-0.2l-2.5-5h-2.1V13c0,0.2-0.2,0.4-0.4,0.4h-1.7c-0.2,0-0.4-0.2-0.4-0.4V0.5z M98,6.2
		c1,0,1.9-0.9,1.9-1.9c0-1-0.9-1.8-1.9-1.8h-3.1v3.8H98z"/>
	<path fill="#444450" d="M104.7,0.5c0-0.2,0.2-0.4,0.4-0.4h1.8c0.2,0,0.4,0.2,0.4,0.4V13c0,0.2-0.2,0.4-0.4,0.4H105
		c-0.2,0-0.4-0.2-0.4-0.4V0.5z"/>
	<path fill="#444450" d="M109.4,11.5l0.7-1.2c0.1-0.3,0.5-0.3,0.6-0.1c0.1,0.1,1.6,1.2,2.8,1.2c1,0,1.7-0.6,1.7-1.4
		c0-1-0.8-1.6-2.4-2.3c-1.8-0.7-3.5-1.8-3.5-4.1c0-1.7,1.2-3.6,4.2-3.6c1.9,0,3.4,1,3.8,1.3c0.2,0.1,0.2,0.4,0.1,0.6L116.8,3
		c-0.2,0.2-0.4,0.4-0.7,0.2c-0.1-0.1-1.6-1-2.6-1c-1.1,0-1.7,0.7-1.7,1.3c0,0.9,0.7,1.5,2.2,2.1c1.8,0.7,3.9,1.8,3.9,4.3
		c0,1.9-1.7,3.7-4.3,3.7c-2.4,0-3.8-1.1-4.1-1.5C109.4,11.9,109.3,11.8,109.4,11.5"/>
	<path fill="#444450" d="M120.1,0.5c0-0.2,0.2-0.4,0.4-0.4h1.8c0.2,0,0.4,0.2,0.4,0.4v5h6.1v-5c0-0.2,0.1-0.4,0.4-0.4h1.7
		c0.2,0,0.4,0.2,0.4,0.4V13c0,0.2-0.2,0.4-0.4,0.4H129c-0.2,0-0.4-0.2-0.4-0.4V7.8h-6.1V13c0,0.2-0.2,0.4-0.4,0.4h-1.8
		c-0.2,0-0.4-0.2-0.4-0.4V0.5z"/>
	<path fill="#444450" d="M86.9,18.8c0-0.2,0.2-0.4,0.4-0.4h4.4c2.3,0,4.2,1.9,4.2,4.2c0,2.3-1.9,4.2-4.2,4.2h-2.4v4.4
		c0,0.2-0.2,0.4-0.4,0.4h-1.7c-0.2,0-0.4-0.2-0.4-0.4V18.8z M91.6,24.5c1.1,0,1.9-0.8,1.9-2c0-1-0.9-1.8-1.9-1.8h-2.2v3.8H91.6z"/>
	<path fill="#444450" d="M97.7,18.8c0-0.2,0.2-0.4,0.4-0.4h1.8c0.2,0,0.4,0.2,0.4,0.4v5h6.1v-5c0-0.2,0.2-0.4,0.4-0.4h1.7
		c0.2,0,0.4,0.2,0.4,0.4v12.5c0,0.2-0.2,0.4-0.4,0.4h-1.7c-0.2,0-0.4-0.2-0.4-0.4V26h-6.1v5.2c0,0.2-0.2,0.4-0.4,0.4h-1.8
		c-0.2,0-0.4-0.2-0.4-0.4V18.8z"/>
	<path fill="#444450" d="M110.1,31.1l5.9-12.7c0.1-0.1,0.2-0.2,0.3-0.2h0.2c0.2,0,0.3,0.1,0.3,0.2l5.8,12.7c0.1,0.2,0,0.5-0.3,0.5
		h-1.6c-0.3,0-0.4-0.1-0.5-0.4l-0.9-2h-5.6l-0.9,2c-0.1,0.2-0.2,0.4-0.5,0.4h-1.6C110.2,31.6,110,31.4,110.1,31.1 M118.3,27.1
		l-1.9-4.1h-0.1l-1.8,4.1H118.3z"/>
	<path fill="#444450" d="M124,18.8c0-0.2,0.2-0.4,0.4-0.4h5.4c2.3,0,4.1,1.8,4.1,4.1c0,1.7-1.2,3.1-2.8,3.8l2.6,4.8
		c0.1,0.2,0,0.5-0.3,0.5h-2c-0.2,0-0.3-0.1-0.3-0.2l-2.5-5h-2.1v4.8c0,0.2-0.2,0.4-0.4,0.4h-1.7c-0.2,0-0.4-0.2-0.4-0.4V18.8z
		 M129.5,24.4c1,0,1.9-0.9,1.9-1.9c0-1-0.9-1.8-1.9-1.8h-3.1v3.8H129.5z"/>
	<path fill="#444450" d="M137.6,18.5c0-0.2,0.1-0.3,0.3-0.3h0.3c0.2,0,0.3,0.1,0.3,0.2l4.2,8.9h0.1l4.1-8.9c0.1-0.1,0.1-0.2,0.3-0.2
		h0.3c0.2,0,0.3,0.1,0.3,0.3l2.2,12.7c0.1,0.3-0.1,0.4-0.3,0.4H148c-0.2,0-0.3-0.2-0.4-0.3l-1.1-7.1h-0.1l-3.3,7.4
		c0,0.1-0.2,0.2-0.3,0.2h-0.3c-0.2,0-0.3-0.1-0.3-0.2l-3.3-7.4h-0.1l-1.1,7.1c0,0.1-0.2,0.3-0.3,0.3h-1.7c-0.2,0-0.4-0.2-0.4-0.4
		L137.6,18.5z"/>
	<path fill="#444450" d="M150.6,31.1l5.9-12.7c0.1-0.1,0.2-0.2,0.3-0.2h0.2c0.2,0,0.3,0.1,0.3,0.2l5.8,12.7c0.1,0.2,0,0.5-0.3,0.5
		h-1.6c-0.3,0-0.4-0.1-0.5-0.4l-0.9-2H154l-0.9,2c-0.1,0.2-0.2,0.4-0.5,0.4h-1.6C150.6,31.6,150.5,31.4,150.6,31.1 M158.7,27.1
		l-1.9-4.1h-0.1l-1.8,4.1H158.7z"/>
	<path fill="#444450" d="M170.2,18.2c1.9,0,3.3,0.6,4.6,1.8c0.2,0.2,0.2,0.4,0,0.5l-1.2,1.2c-0.1,0.1-0.3,0.1-0.5,0
		c-0.8-0.7-1.8-1.1-2.9-1.1c-2.4,0-4.2,2-4.2,4.4c0,2.4,1.8,4.4,4.2,4.4c1.1,0,2.1-0.4,2.9-1.1c0.2-0.1,0.4-0.1,0.5,0l1.2,1.2
		c0.2,0.1,0.1,0.4,0,0.5c-1.3,1.2-2.9,1.8-4.6,1.8c-3.8,0-6.8-3-6.8-6.8S166.4,18.2,170.2,18.2"/>
	<path fill="#444450" d="M179.4,25.2l-4.3-6.3c-0.2-0.2,0-0.5,0.3-0.5h1.9c0.2,0,0.2,0.1,0.3,0.2l3,4.3l3-4.3
		c0.1-0.1,0.2-0.2,0.3-0.2h1.9c0.3,0,0.5,0.3,0.3,0.5l-4.4,6.3v6c0,0.2-0.2,0.4-0.4,0.4h-1.7c-0.2,0-0.4-0.2-0.4-0.4V25.2z"/>
	<path fill="#444450" d="M86.9,36.8c0-0.2,0.2-0.4,0.4-0.4h1.8c0.2,0,0.4,0.2,0.4,0.4v7.7c0,1.6,1.1,2.9,2.7,2.9
		c1.6,0,2.8-1.3,2.8-2.8v-7.7c0-0.2,0.2-0.4,0.4-0.4h1.8c0.2,0,0.4,0.2,0.4,0.4v7.8c0,2.9-2.3,5.2-5.3,5.2c-3,0-5.2-2.3-5.2-5.2
		V36.8z"/>
	<path fill="#444450" d="M100.3,36.6c0-0.2,0.2-0.3,0.4-0.3h0.5l7.8,8.3h0v-7.8c0-0.2,0.2-0.4,0.4-0.4h1.7c0.2,0,0.4,0.2,0.4,0.4
		v12.7c0,0.2-0.2,0.3-0.4,0.3h-0.5l-7.9-8.7h0v8.1c0,0.2-0.1,0.4-0.4,0.4h-1.7c-0.2,0-0.4-0.2-0.4-0.4V36.6z"/>
	<path fill="#444450" d="M114.5,36.8c0-0.2,0.2-0.4,0.4-0.4h1.8c0.2,0,0.4,0.2,0.4,0.4v12.5c0,0.2-0.2,0.4-0.4,0.4h-1.8
		c-0.2,0-0.4-0.2-0.4-0.4V36.8z"/>
	<path fill="#444450" d="M125.9,36.2c3.8,0,6.8,3,6.8,6.8c0,3.8-3,6.8-6.8,6.8c-3.8,0-6.8-3-6.8-6.8
		C119.1,39.3,122.1,36.2,125.9,36.2 M125.9,47.4c2.4,0,4.3-1.9,4.3-4.3c0-2.4-2-4.4-4.3-4.4c-2.4,0-4.3,2-4.3,4.4
		C121.6,45.4,123.5,47.4,125.9,47.4"/>
	<path fill="#444450" d="M134.8,36.6c0-0.2,0.2-0.3,0.4-0.3h0.5l7.8,8.3h0v-7.8c0-0.2,0.2-0.4,0.4-0.4h1.7c0.2,0,0.4,0.2,0.4,0.4
		v12.7c0,0.2-0.2,0.3-0.4,0.3h-0.5l-7.9-8.7h0v8.1c0,0.2-0.2,0.4-0.4,0.4h-1.7c-0.2,0-0.4-0.2-0.4-0.4V36.6z"/>
	<path fill="#9575AA" d="M24.1,36.4V0.2H7.5C3.4,0.2,0,3.5,0,7.7L0,36.4H24.1z"/>
	<path fill="#00A4E1" d="M55.5,41.2v19.3H24.1V41.2H0L0,69.9c0,4.1,3.4,7.5,7.5,7.5h62.3c4.1,0,7.5-3.4,7.5-7.5l0-28.7H55.5z"/>
	<path fill="#80B533" d="M69.8,0.2H28.9v55.6h21.7V36.4h26.6l0-28.8C77.3,3.5,73.9,0.2,69.8,0.2 M60.3,20.7h-4.8v4.8h-4.8v-4.8h-4.8
		v-4.8h4.8v-4.8h4.8v4.8h4.8V20.7z"/>
	<path fill="#444450" d="M88.6,60.4h-1.9c-0.1,0-0.2-0.1-0.2-0.2v-0.3c0-0.1,0.1-0.2,0.2-0.2h4.6c0.1,0,0.2,0.1,0.2,0.2v0.3
		c0,0.1-0.1,0.2-0.2,0.2h-1.9V67c0,0.1-0.1,0.2-0.2,0.2h-0.4c-0.1,0-0.2-0.1-0.2-0.2V60.4z"/>
	<path fill="#444450" d="M92.6,59.9c0-0.1,0.1-0.2,0.2-0.2h0.3c0.1,0,0.2,0.1,0.2,0.2v2.9c0,0,0.6-0.6,1.6-0.6
		c1.2,0,1.8,0.8,1.8,2.2V67c0,0.1-0.1,0.2-0.2,0.2h-0.3c-0.1,0-0.2-0.1-0.2-0.2v-2.6c0-1-0.3-1.5-1-1.5c-1,0-1.5,0.7-1.5,0.7V67
		c0,0.1-0.1,0.2-0.2,0.2h-0.3c-0.1,0-0.2-0.1-0.2-0.2V59.9z"/>
	<path fill="#444450" d="M100.4,62.1c1.3,0,2.3,1,2.3,2.3c0,0.1,0,0.2,0,0.3c0,0.1-0.1,0.2-0.2,0.2h-3.6c0,0.8,0.7,1.7,1.6,1.7
		c0.7,0,1.1-0.2,1.4-0.4c0.2-0.1,0.2-0.2,0.4,0l0.1,0.2c0.1,0.2,0.1,0.2,0,0.3c-0.3,0.2-1,0.6-1.8,0.6c-1.5,0-2.4-1.2-2.4-2.6
		C98,63.3,98.9,62.1,100.4,62.1 M101.9,64.2c0-0.7-0.6-1.4-1.5-1.4c-0.8,0-1.5,0.6-1.6,1.4H101.9z"/>
	<path fill="#444450" d="M105.6,62.5c-0.1-0.2,0-0.3,0.2-0.3h0.4c0.1,0,0.2,0.1,0.2,0.1L108,66h0l1.6-3.7c0-0.1,0.1-0.1,0.2-0.1h0.3
		c0.2,0,0.3,0.1,0.2,0.3l-2.2,4.7c0,0.1-0.1,0.1-0.2,0.1h-0.1c-0.1,0-0.2-0.1-0.2-0.1L105.6,62.5z"/>
	<path fill="#444450" d="M113.4,62.1c1.4,0,2.5,1.2,2.5,2.6c0,1.4-1.1,2.6-2.5,2.6c-1.4,0-2.5-1.2-2.5-2.6
		C110.9,63.3,112,62.1,113.4,62.1 M113.4,66.6c1,0,1.7-0.9,1.7-1.9c0-1-0.7-1.9-1.7-1.9c-1,0-1.7,0.9-1.7,1.9
		C111.7,65.7,112.4,66.6,113.4,66.6"/>
	<path fill="#444450" d="M117,60.3c0-0.3,0.3-0.6,0.6-0.6c0.3,0,0.6,0.3,0.6,0.6c0,0.3-0.3,0.6-0.6,0.6
		C117.3,60.9,117,60.6,117,60.3 M117.2,62.4c0-0.1,0.1-0.2,0.2-0.2h0.3c0.1,0,0.2,0.1,0.2,0.2V67c0,0.1-0.1,0.2-0.2,0.2h-0.3
		c-0.1,0-0.2-0.1-0.2-0.2V62.4z"/>
	<path fill="#444450" d="M121.8,62.1c0.7,0,1.4,0.3,1.8,0.8c0.1,0.1,0.1,0.3,0,0.4l-0.2,0.2c-0.2,0.1-0.3,0-0.4-0.1
		c-0.3-0.4-0.7-0.5-1.3-0.5c-1,0-1.7,0.8-1.7,1.9c0,1.1,0.7,1.9,1.7,1.9c0.8,0,1.1-0.4,1.4-0.7c0.1-0.2,0.3-0.1,0.4,0l0.1,0.1
		c0.1,0.1,0.2,0.2,0.1,0.3c-0.4,0.6-1,1-1.9,1c-1.5,0-2.5-1.1-2.5-2.6C119.3,63.2,120.4,62.1,121.8,62.1"/>
	<path fill="#444450" d="M127,62.1c1.3,0,2.3,1,2.3,2.3c0,0.1,0,0.2,0,0.3c0,0.1-0.1,0.2-0.2,0.2h-3.6c0,0.8,0.7,1.7,1.6,1.7
		c0.7,0,1.1-0.2,1.4-0.4c0.2-0.1,0.2-0.2,0.4,0l0.1,0.2c0.1,0.2,0.1,0.2,0,0.3c-0.3,0.2-1,0.6-1.8,0.6c-1.5,0-2.4-1.2-2.4-2.6
		C124.6,63.3,125.5,62.1,127,62.1 M128.4,64.2c0-0.7-0.6-1.4-1.5-1.4c-0.8,0-1.5,0.6-1.6,1.4H128.4z"/>
	<path fill="#444450" d="M134.9,62.1c1.4,0,2.5,1.2,2.5,2.6c0,1.4-1.1,2.6-2.5,2.6c-1.4,0-2.5-1.2-2.5-2.6
		C132.4,63.3,133.5,62.1,134.9,62.1 M134.9,66.6c1,0,1.7-0.9,1.7-1.9c0-1-0.7-1.9-1.7-1.9c-1,0-1.7,0.9-1.7,1.9
		C133.2,65.7,133.9,66.6,134.9,66.6"/>
	<path fill="#444450" d="M139,62.9h-0.8c-0.1,0-0.2-0.1-0.2-0.2v-0.2c0-0.1,0.1-0.2,0.2-0.2h0.8v-0.8c0-1.2,0.6-1.9,1.7-1.9
		c0.7,0,1.1,0.3,1.4,0.5c0.1,0.1,0.1,0.2,0,0.3l-0.2,0.3c-0.1,0.1-0.2,0.1-0.3,0c-0.3-0.2-0.5-0.3-0.9-0.3c-0.6,0-0.8,0.4-0.8,1.2
		v0.8h1.5c0.1,0,0.2,0.1,0.2,0.2v0.2c0,0.1-0.1,0.2-0.2,0.2h-1.5V67c0,0.1-0.1,0.2-0.2,0.2h-0.3c-0.1,0-0.2-0.1-0.2-0.2V62.9z"/>
	<path fill="#444450" d="M89.3,72.3c0.7,0,1.4,0.3,1.8,0.8c0.1,0.1,0.1,0.3,0,0.4l-0.2,0.2c-0.2,0.1-0.3,0-0.4-0.1
		c-0.3-0.4-0.7-0.5-1.3-0.5c-1,0-1.7,0.8-1.7,1.9c0,1.1,0.7,1.9,1.7,1.9c0.8,0,1.1-0.4,1.4-0.7c0.1-0.2,0.3-0.1,0.4,0l0.1,0.1
		c0.1,0.1,0.2,0.2,0.1,0.3c-0.4,0.6-1,1-1.9,1c-1.5,0-2.5-1.1-2.5-2.6C86.7,73.5,87.8,72.3,89.3,72.3"/>
	<path fill="#444450" d="M94.5,72.3c1.4,0,2.5,1.2,2.5,2.6c0,1.4-1.1,2.6-2.5,2.6c-1.4,0-2.5-1.2-2.5-2.6
		C92,73.5,93.1,72.3,94.5,72.3 M94.5,76.8c1,0,1.7-0.9,1.7-1.9c0-1-0.7-1.9-1.7-1.9c-1,0-1.7,0.9-1.7,1.9
		C92.8,76,93.5,76.8,94.5,76.8"/>
	<path fill="#444450" d="M98.3,72.7c0-0.1,0.1-0.2,0.2-0.2h0.2c0.1,0,0.2,0,0.2,0.2L99,73c0,0,0.5-0.6,1.5-0.6
		c0.7,0,1.1,0.3,1.5,0.8c0.1,0,0.8-0.8,1.8-0.8c1.4,0,1.8,0.9,1.8,2.2v2.6c0,0.1-0.1,0.2-0.2,0.2h-0.3c-0.1,0-0.2-0.1-0.2-0.2v-2.6
		c0-0.9-0.3-1.5-1.1-1.5c-0.8,0-1.3,0.5-1.4,0.7c0,0.2,0.1,0.6,0.1,0.8v2.6c0,0.1-0.1,0.2-0.2,0.2h-0.3c-0.1,0-0.2-0.1-0.2-0.2v-2.6
		c0-1-0.3-1.5-1.1-1.5c-0.9,0-1.3,0.7-1.3,0.7v3.5c0,0.1-0.1,0.2-0.2,0.2h-0.3c-0.1,0-0.2-0.1-0.2-0.2V72.7z"/>
	<path fill="#444450" d="M107.2,72.7c0-0.1,0.1-0.2,0.2-0.2h0.2c0.1,0,0.2,0,0.2,0.2l0.1,0.4c0,0,0.5-0.6,1.5-0.6
		c0.7,0,1.1,0.3,1.5,0.8c0.1,0,0.8-0.8,1.8-0.8c1.5,0,1.8,0.9,1.8,2.2v2.6c0,0.1-0.1,0.2-0.2,0.2h-0.3c-0.1,0-0.2-0.1-0.2-0.2v-2.6
		c0-0.9-0.3-1.5-1.1-1.5c-0.8,0-1.3,0.5-1.4,0.7c0,0.2,0.1,0.6,0.1,0.8v2.6c0,0.1-0.1,0.2-0.2,0.2h-0.3c-0.1,0-0.2-0.1-0.2-0.2v-2.6
		c0-1-0.3-1.5-1.1-1.5c-0.9,0-1.3,0.7-1.3,0.7v3.5c0,0.1-0.1,0.2-0.2,0.2h-0.3c-0.1,0-0.2-0.1-0.2-0.2V72.7z"/>
	<path fill="#444450" d="M116,72.7c0-0.1,0.1-0.2,0.2-0.2h0.3c0.1,0,0.2,0.1,0.2,0.2v2.7c0,1,0.3,1.4,1,1.4c0.7,0,1.2-0.5,1.4-0.7
		v-3.4c0-0.1,0.1-0.2,0.2-0.2h0.3c0.1,0,0.2,0.1,0.2,0.2v4.5c0,0.1-0.1,0.2-0.2,0.2h-0.2c-0.1,0-0.2-0.1-0.2-0.2l-0.1-0.3
		c-0.2,0.2-0.6,0.6-1.5,0.6c-1.4,0-1.8-0.9-1.8-2.2V72.7z"/>
	<path fill="#444450" d="M121.6,72.7c0-0.1,0.1-0.2,0.2-0.2h0.2c0.1,0,0.2,0,0.2,0.2l0.1,0.4c0,0,0.6-0.6,1.7-0.6
		c1.4,0,1.8,0.9,1.8,2.2v2.6c0,0.1-0.1,0.2-0.2,0.2h-0.3c-0.1,0-0.2-0.1-0.2-0.2v-2.7c0-1-0.3-1.4-1.1-1.4c-0.9,0-1.5,0.7-1.5,0.7
		v3.5c0,0.1-0.1,0.2-0.2,0.2h-0.3c-0.1,0-0.2-0.1-0.2-0.2V72.7z"/>
	<path fill="#444450" d="M127.2,70.6c0-0.3,0.3-0.6,0.6-0.6c0.3,0,0.6,0.3,0.6,0.6c0,0.3-0.3,0.6-0.6,0.6
		C127.4,71.1,127.2,70.9,127.2,70.6 M127.4,72.7c0-0.1,0.1-0.2,0.2-0.2h0.3c0.1,0,0.2,0.1,0.2,0.2v4.5c0,0.1-0.1,0.2-0.2,0.2h-0.3
		c-0.1,0-0.2-0.1-0.2-0.2V72.7z"/>
	<path fill="#444450" d="M129.5,73.1c-0.2,0-0.2-0.1-0.2-0.2v-0.2c0-0.1,0.1-0.2,0.2-0.2h0.7V71c0-0.1,0.1-0.2,0.2-0.2l0.3,0
		c0.1,0,0.2,0.1,0.2,0.2v1.4h1.5c0.1,0,0.2,0.1,0.2,0.2v0.2c0,0.1-0.1,0.2-0.2,0.2h-1.5v3c0,0.5,0.2,0.7,0.4,0.7
		c0.5,0,0.8-0.2,1-0.3c0.2-0.1,0.3,0,0.3,0.1l0.1,0.2c0.1,0.2,0,0.2-0.1,0.3c-0.2,0.1-0.7,0.4-1.4,0.4c-1,0-1.1-0.6-1.1-1.4v-3
		H129.5z"/>
	<path fill="#444450" d="M133.4,72.7c-0.1-0.2,0-0.3,0.2-0.3h0.5c0.1,0,0.2,0.1,0.2,0.1l1.4,4h0l1.7-4c0-0.1,0.1-0.1,0.2-0.1h0.4
		c0.2,0,0.3,0.1,0.2,0.3l-3.1,7.1c0,0.1-0.1,0.2-0.2,0.2h-0.4c-0.2,0-0.3-0.1-0.2-0.3l1-2.3L133.4,72.7z"/>
	<path fill="#444450" d="M142.4,79.8c0,0.1-0.1,0.2-0.2,0.2h-0.3c-0.1,0-0.2-0.1-0.2-0.2v-7.1c0-0.1,0.1-0.2,0.2-0.2h0.2
		c0.1,0,0.2,0,0.2,0.2l0.1,0.2c0,0,0.6-0.5,1.5-0.5c1.4,0,2.3,1.2,2.3,2.6c0,1.5-1,2.6-2.4,2.6c-0.8,0-1.4-0.4-1.4-0.4V79.8z
		 M143.6,76.8c1,0,1.7-0.8,1.7-1.9c0-1-0.6-1.9-1.6-1.9c-0.8,0-1.3,0.6-1.3,0.6v2.7C142.4,76.4,142.9,76.8,143.6,76.8"/>
	<path fill="#444450" d="M147.4,70.1c0-0.1,0.1-0.2,0.2-0.2h0.3c0.1,0,0.2,0.1,0.2,0.2V73c0,0,0.6-0.6,1.6-0.6
		c1.2,0,1.8,0.8,1.8,2.2v2.6c0,0.1-0.1,0.2-0.2,0.2H151c-0.1,0-0.2-0.1-0.2-0.2v-2.6c0-1-0.3-1.5-1.1-1.5c-1,0-1.5,0.7-1.5,0.7v3.4
		c0,0.1-0.1,0.2-0.2,0.2h-0.3c-0.1,0-0.2-0.1-0.2-0.2V70.1z"/>
	<path fill="#444450" d="M154.8,74.3c0.5,0,1.1,0.2,1.1,0.2c0-0.9-0.1-1.4-0.8-1.4c-0.7,0-1.3,0.2-1.5,0.3c-0.1,0.1-0.2,0-0.2-0.1
		l-0.1-0.3c0-0.2,0-0.2,0.2-0.3c0.2-0.1,0.9-0.3,1.7-0.3c1.3,0,1.5,0.6,1.5,2.1v2.8c0,0.1-0.1,0.2-0.2,0.2h-0.2
		c-0.1,0-0.2-0.1-0.2-0.2l-0.1-0.3c-0.3,0.3-0.8,0.6-1.5,0.6c-0.9,0-1.5-0.6-1.5-1.6C152.8,75,153.5,74.3,154.8,74.3 M154.5,76.8
		c0.6,0,1.2-0.3,1.4-0.7v-1c-0.2-0.1-0.6-0.2-1.1-0.2c-0.7,0-1.2,0.3-1.2,1C153.6,76.4,153.9,76.8,154.5,76.8"/>
	<path fill="#444450" d="M158.2,72.7c0-0.1,0.1-0.2,0.2-0.2h0.2c0.1,0,0.2,0.1,0.2,0.2l0.1,0.4c0,0,0.5-0.6,1.5-0.6
		c0.4,0,1,0.1,0.9,0.4l-0.1,0.4c-0.1,0.2-0.2,0.2-0.3,0.1s-0.3-0.1-0.5-0.1c-1,0-1.4,0.6-1.4,0.6v3.5c0,0.1-0.1,0.2-0.2,0.2h-0.3
		c-0.1,0-0.2-0.1-0.2-0.2V72.7z"/>
	<path fill="#444450" d="M162.3,72.7c0-0.1,0.1-0.2,0.2-0.2h0.2c0.1,0,0.2,0,0.2,0.2L163,73c0,0,0.5-0.6,1.5-0.6
		c0.7,0,1.1,0.3,1.5,0.8c0.1,0,0.8-0.8,1.8-0.8c1.5,0,1.8,0.9,1.8,2.2v2.6c0,0.1-0.1,0.2-0.2,0.2h-0.3c-0.1,0-0.2-0.1-0.2-0.2v-2.6
		c0-0.9-0.3-1.5-1.1-1.5c-0.8,0-1.3,0.5-1.4,0.7c0,0.2,0.1,0.6,0.1,0.8v2.6c0,0.1-0.1,0.2-0.2,0.2h-0.3c-0.1,0-0.2-0.1-0.2-0.2v-2.6
		c0-1-0.3-1.5-1.1-1.5c-0.9,0-1.3,0.7-1.3,0.7v3.5c0,0.1-0.1,0.2-0.2,0.2h-0.3c-0.1,0-0.2-0.1-0.2-0.2V72.7z"/>
	<path fill="#444450" d="M172.8,74.3c0.5,0,1.1,0.2,1.1,0.2c0-0.9-0.1-1.4-0.8-1.4c-0.7,0-1.3,0.2-1.5,0.3c-0.1,0.1-0.2,0-0.2-0.1
		l-0.1-0.3c0-0.2,0-0.2,0.2-0.3c0.2-0.1,0.9-0.3,1.7-0.3c1.3,0,1.5,0.6,1.5,2.1v2.8c0,0.1-0.1,0.2-0.2,0.2h-0.2
		c-0.1,0-0.2-0.1-0.2-0.2l-0.1-0.3c-0.3,0.3-0.8,0.6-1.5,0.6c-0.9,0-1.5-0.6-1.5-1.6C170.8,75,171.5,74.3,172.8,74.3 M172.5,76.8
		c0.6,0,1.2-0.3,1.4-0.7v-1c-0.2-0.1-0.6-0.2-1.1-0.2c-0.7,0-1.2,0.3-1.2,1C171.6,76.4,171.9,76.8,172.5,76.8"/>
	<path fill="#444450" d="M178.4,72.3c0.7,0,1.4,0.3,1.8,0.8c0.1,0.1,0.1,0.3,0,0.4l-0.2,0.2c-0.2,0.1-0.3,0-0.4-0.1
		c-0.3-0.4-0.7-0.5-1.3-0.5c-1,0-1.7,0.8-1.7,1.9c0,1.1,0.7,1.9,1.7,1.9c0.8,0,1.1-0.4,1.4-0.7c0.1-0.2,0.3-0.1,0.4,0l0.1,0.1
		c0.1,0.1,0.2,0.2,0.1,0.3c-0.4,0.6-1,1-1.9,1c-1.5,0-2.5-1.1-2.5-2.6C175.9,73.5,177,72.3,178.4,72.3"/>
	<path fill="#444450" d="M181.1,72.7c-0.1-0.2,0-0.3,0.2-0.3h0.5c0.1,0,0.2,0.1,0.2,0.1l1.4,4h0l1.7-4c0-0.1,0.1-0.1,0.2-0.1h0.4
		c0.2,0,0.3,0.1,0.2,0.3l-3.1,7.1c0,0.1-0.1,0.2-0.2,0.2h-0.4c-0.2,0-0.3-0.1-0.2-0.3l1-2.3L181.1,72.7z"/>
</g>
</svg>
