<?xml version="1.0" encoding="utf-8"?>
<!-- Generator: Adobe Illustrator 15.1.0, SVG Export Plug-In  -->
<!DOCTYPE svg PUBLIC "-//W3C//DTD SVG 1.1//EN" "http://www.w3.org/Graphics/SVG/1.1/DTD/svg11.dtd" [
	<!ENTITY ns_flows "http://ns.adobe.com/Flows/1.0/">
]>
<svg version="1.1"
	 xmlns="http://www.w3.org/2000/svg" xmlns:xlink="http://www.w3.org/1999/xlink" xmlns:a="http://ns.adobe.com/AdobeSVGViewerExtensions/3.0/"
	 x="0px" y="0px" width="60px" height="60px" viewBox="0 0 60 60" overflow="visible" enable-background="new 0 0 60 60"
	 xml:space="preserve">
<defs>
</defs>
<path fill="#FFFFFF" d="M18.75,28.144V0H5.848C2.638,0,0.04,2.604,0.04,5.814L0,28.144H18.75z"/>
<path fill="#FFFFFF" d="M43.124,31.896v15.011H18.75V31.896H0l0.04,22.289C0.04,57.399,2.64,60,5.848,60h48.344
	C57.399,60,60,57.399,60,54.186V31.896H43.124z"/>
<path fill="#FFFFFF" d="M54.191,0H22.5v43.155h16.875V28.144H60V5.814C60,2.604,57.399,0,54.191,0 M46.874,15.952h-3.746v3.751
	h-3.749v-3.751h-3.754v-3.75h3.754V8.446h3.749v3.756h3.746V15.952z"/>
</svg>
