<?xml version="1.0" encoding="utf-8"?>
<!-- Generator: Adobe Illustrator 15.1.0, SVG Export Plug-In  -->
<!DOCTYPE svg PUBLIC "-//W3C//DTD SVG 1.1//EN" "http://www.w3.org/Graphics/SVG/1.1/DTD/svg11.dtd" [
	<!ENTITY ns_flows "http://ns.adobe.com/Flows/1.0/">
]>
<svg version="1.1"
	 xmlns="http://www.w3.org/2000/svg" xmlns:xlink="http://www.w3.org/1999/xlink" xmlns:a="http://ns.adobe.com/AdobeSVGViewerExtensions/3.0/"
	 x="0px" y="0px" width="20px" height="20px" viewBox="-1.483 -4.01 20 20"
	 overflow="visible" enable-background="new -1.483 -4.01 20 20" xml:space="preserve">
<defs>
</defs>
<path fill="#5B5A68" d="M6.758,8.2l0-4.787l4.603,2.401L6.758,8.2L6.758,8.2z M16.864,2.584c0,0-0.166-1.174-0.677-1.69
	c-0.648-0.679-1.374-0.682-1.707-0.722C12.096,0,8.521,0,8.521,0H8.513c0,0-3.576,0-5.959,0.172
	c-0.333,0.04-1.059,0.043-1.706,0.722C0.336,1.411,0.17,2.584,0.17,2.584S0,3.963,0,5.341v1.292c0,1.379,0.17,2.757,0.17,2.757
	s0.166,1.174,0.677,1.69c0.647,0.679,1.499,0.657,1.877,0.729c1.363,0.131,5.792,0.171,5.792,0.171s3.579-0.005,5.963-0.177
	c0.333-0.04,1.059-0.044,1.707-0.723c0.511-0.517,0.677-1.69,0.677-1.69s0.17-1.378,0.17-2.757V5.341
	C17.034,3.963,16.864,2.584,16.864,2.584L16.864,2.584z"/>
</svg>
