<?xml version="1.0" encoding="utf-8"?>
<!-- Generator: Adobe Illustrator 15.1.0, SVG Export Plug-In  -->
<!DOCTYPE svg PUBLIC "-//W3C//DTD SVG 1.1//EN" "http://www.w3.org/Graphics/SVG/1.1/DTD/svg11.dtd" [
	<!ENTITY ns_flows "http://ns.adobe.com/Flows/1.0/">
]>
<svg version="1.1"
	 xmlns="http://www.w3.org/2000/svg" xmlns:xlink="http://www.w3.org/1999/xlink" xmlns:a="http://ns.adobe.com/AdobeSVGViewerExtensions/3.0/"
	 x="0px" y="0px" width="20px" height="20px" viewBox="-2.438 -3.855 20 20"
	 overflow="visible" enable-background="new -2.438 -3.855 20 20" xml:space="preserve">
<defs>
</defs>
<path fill="#5B5A68" d="M13.578,3.06c0.004,0.133,0.008,0.266,0.008,0.403c0,4.1-3.121,8.826-8.827,8.826
	c-1.753,0-3.386-0.512-4.759-1.393c0.246,0.027,0.491,0.043,0.743,0.043c1.452,0,2.79-0.494,3.852-1.33
	C3.238,9.586,2.089,8.688,1.698,7.456c0.188,0.037,0.381,0.057,0.581,0.057c0.284,0,0.561-0.037,0.818-0.109
	C1.68,7.119,0.61,5.865,0.61,4.361c0-0.012,0-0.027,0-0.041c0.417,0.233,0.896,0.375,1.405,0.389
	c-0.835-0.554-1.381-1.505-1.381-2.58c0-0.571,0.155-1.104,0.419-1.561C2.582,2.444,4.873,3.68,7.448,3.809
	C7.396,3.584,7.369,3.345,7.369,3.103C7.369,1.387,8.755,0,10.474,0c0.891,0,1.695,0.376,2.262,0.98
	c0.707-0.139,1.369-0.397,1.971-0.753c-0.232,0.724-0.725,1.332-1.361,1.716c0.625-0.076,1.223-0.242,1.779-0.489
	C14.708,2.076,14.183,2.623,13.578,3.06z"/>
</svg>
