<svg width="20" height="20" xmlns="http://www.w3.org/2000/svg">

 <g>
  <title>background</title>
  <rect fill="none" id="canvas_background" height="402" width="582" y="-1" x="-1"/>
 </g>
 <g>
  <title>Layer 1</title>
  <path id="svg_1" d="m8.472,7.349l0,-0.032c-0.009,0.011 -0.015,0.023 -0.023,0.032l0.023,0z" fill="#ffffff"/>
  <rect id="svg_2" height="9.753" width="3.245" fill="#ffffff" y="5.937" x="0.192"/>
  <path id="svg_3" d="m1.812,3.372l-0.02,0c-1.088,0 -1.792,-0.751 -1.792,-1.686c0,-0.957 0.727,-1.686 1.835,-1.686c1.109,0 1.792,0.729 1.812,1.686c0,0.935 -0.703,1.686 -1.835,1.686z" fill="#ffffff"/>
  <path id="svg_4" d="m15.122,15.689l-3.24,0l0,-5.217c0,-1.313 -0.467,-2.208 -1.643,-2.208c-0.895,0 -1.428,0.605 -1.662,1.188c-0.086,0.21 -0.105,0.499 -0.105,0.791l0,5.446l-3.243,0c0,0 0.043,-8.838 0,-9.753l3.242,0l0,1.381c0.432,-0.667 1.199,-1.607 2.922,-1.607c2.131,0 3.729,1.391 3.729,4.388l0,5.591z" fill="#ffffff"/>
 </g>
</svg>