<svg width="20" height="20" xmlns="http://www.w3.org/2000/svg">

 <g>
  <title>background</title>
  <rect fill="none" id="canvas_background" height="402" width="582" y="-1" x="-1"/>
 </g>
 <g>
  <title>Layer 1</title>
  <path id="svg_1" d="m6.749,7.567l-2.117,0c0,3.387 0,7.557 0,7.557l-3.141,0c0,0 0,-4.129 0,-7.557l-1.491,0l0,-2.67l1.491,0l0,-1.726c0,-1.238 0.587,-3.171 3.169,-3.171l2.328,0.01l0,2.592c0,0 -1.414,0 -1.688,0c-0.276,0 -0.669,0.137 -0.669,0.727l0,1.569l2.394,0l-0.276,2.669z" fill="#ffffff"/>
 </g>
</svg>